<?xml version="1.0" encoding="UTF-8" standalone="no"?>
<!-- Created with Inkscape (http://www.inkscape.org/) -->

<svg
   width="991.39307mm"
   height="852.80939mm"
   viewBox="0 0 991.39307 852.80939"
   version="1.1"
   id="svg5"
   xmlns="http://www.w3.org/2000/svg"
   xmlns:svg="http://www.w3.org/2000/svg">
  <defs
     id="defs2">
    <clipPath
       id="clip0-9">
      <rect
         x="1215"
         y="132"
         width="3747"
         height="3224"
         id="rect2623" />
    </clipPath>
    <clipPath
       id="clip1-5">
      <rect
         x="2799"
         y="1537"
         width="132"
         height="132"
         id="rect2626" />
    </clipPath>
    <clipPath
       id="clip2-8">
      <rect
         x="2799"
         y="1537"
         width="132"
         height="132"
         id="rect2629" />
    </clipPath>
    <clipPath
       id="clip3-6">
      <rect
         x="2799"
         y="1537"
         width="132"
         height="132"
         id="rect2632" />
    </clipPath>
    <clipPath
       id="clip4-9">
      <path
         d="m 2799,1537 v 125.53 h 33.89 c -0.02,-0.02 -0.04,-0.04 -0.05,-0.06 -1.11,-1.48 -1.07,-2.46 -1.2,-3.98 -0.01,-2.49 0.17,-4.97 0.42,-7.44 0.26,-2.34 0.5,-4.75 1.26,-6.99 0.11,-0.32 0.26,-0.62 0.39,-0.93 4.08,-9.93 3.72,13.75 9.74,4.85 0.02,-0.04 0.06,-0.15 0.07,-0.11 0.02,0.07 -0.02,0.15 -0.03,0.22 -0.05,0.24 -0.1,0.48 -0.15,0.72 -0.06,0.34 -0.11,0.67 -0.16,1 -0.15,0.99 -0.19,1.44 -0.3,2.44 -0.09,1.03 -0.19,2.06 -0.25,3.09 0.2,0.02 0.41,0.04 0.61,0.06 3.12,0.22 6.24,0.44 9.36,0.7 2.06,0.18 4.12,0.43 6.16,0.77 1.34,0.22 2.65,0.58 3.99,0.84 0.95,0.18 1.4,0.23 2.37,0.38 2.62,0.36 5.16,-0.13 7.67,-0.85 1.81,-0.56 3.54,-1.35 5.13,-2.38 1.38,-1.11 2.67,-2.3 4.05,-3.41 3.23,-2.51 6.99,-4.2 10.7,-5.86 4.12,-1.87 8.44,-3.33 12.4,-5.53 0.75,-0.42 1.47,-0.9 2.2,-1.34 2.91,-1.96 5.31,-4.53 6.96,-7.63 1.23,-2.31 1.36,-3.09 2.17,-5.61 0.26,-1.11 0.55,-2.21 0.76,-3.33 0.43,-2.27 0.73,-4.96 0.93,-7.25 0.32,-3.51 0.46,-7.03 0.6,-10.55 0.09,-2.74 0.17,-5.47 0.07,-8.21 -0.06,-1.83 -0.23,-3.65 -0.44,-5.47 -0.22,-1.73 -0.63,-3.44 -1.45,-4.99 -0.27,-0.51 -0.67,-0.88 -1.13,-1.21 -0.62,-0.36 -1.21,-0.76 -1.81,-1.15 -7.06,-4.58 -4.97,-11.13 0.59,-10.98 1.56,0.04 3.38,0.61 5.36,1.89 0.86,0.56 1.73,1.11 2.57,1.7 0.66,0.53 0.89,0.68 1.51,1.29 0.4,0.41 0.78,0.83 1.13,1.28 V 1537 Z m 126.09,96.56 c -0.39,0.96 -0.88,1.96 -1.68,3.36 -1.95,3.44 -4.55,6.47 -7.61,8.98 -0.92,0.76 -1.93,1.4 -2.9,2.1 -0.97,0.58 -1.92,1.18 -2.9,1.73 -4.13,2.26 -8.58,3.83 -12.87,5.75 -2.86,1.28 -5.79,2.54 -8.33,4.41 -1.06,0.85 -2.06,1.77 -3.1,2.64 h 39.39 z m -82.56,24.55 c 0,0.11 0,0.22 0,0.33 0.13,0.34 0.1,0.08 0,-0.33 z"
         id="path2635" />
    </clipPath>
    <clipPath
       id="clip5-9">
      <path
         d="m 2806.09,1543.47 v 45.37 c 0.23,-0.42 0.48,-0.86 0.7,-1.21 0.15,-3.71 0.46,-7.41 1.18,-11.06 0.87,-4.33 1.9,-8.68 4.05,-12.59 0.34,-0.58 0.66,-1.18 1.03,-1.75 1.71,-2.65 3.93,-4.94 6.45,-6.83 0.46,-0.33 0.92,-0.67 1.39,-0.98 1.84,-1.23 3.81,-2.25 5.72,-3.38 2.61,-1.43 5.26,-2.82 7.94,-4.13 2.41,-1.19 4.82,-2.4 7.31,-3.44 z m 82.89,0 c 2.04,0.74 4.05,1.57 6.03,2.44 1.89,0.92 1.73,0.83 3.49,1.76 0.92,0.48 1.82,1 2.74,1.47 0.15,0.08 0.32,0.16 0.48,0.23 v 0 c 9.72,4.65 4.66,14.72 -4.87,9.7 -2.21,-1.16 -4.41,-2.34 -6.65,-3.44 -2.87,-1.22 -5.77,-2.37 -8.77,-3.23 -1.92,-0.56 -2.37,-0.62 -4.32,-1.04 -3.67,-0.73 -7.4,-1.11 -11.13,-1.35 -1.95,-0.12 -3.92,-0.17 -5.87,-0.04 -1.12,0.07 -1.58,0.15 -2.7,0.31 -3.15,0.45 -6.19,1.38 -9.21,2.37 -3.06,1.06 -5.94,2.56 -8.85,3.99 -2.53,1.24 -5.02,2.55 -7.49,3.9 -1.71,1.02 -3.5,1.92 -5.15,3.04 -0.3,0.2 -0.58,0.43 -0.88,0.64 -1.5,1.16 -2.82,2.54 -3.81,4.16 -0.2,0.33 -0.38,0.68 -0.57,1.02 -1.49,2.89 -2.17,6.11 -2.8,9.28 -0.62,3.18 -0.88,6.41 -0.99,9.64 -0.06,4.37 0,8.74 0.04,13.1 0,1.56 0.06,3.11 -0.02,4.67 -0.02,0.43 -0.12,1.75 -0.29,2.13 -0.38,0.89 -0.93,1.71 -1.39,2.56 -0.66,0.04 -1.33,0.11 -1.99,0.18 -0.01,1.22 0.03,1.88 0.1,3.3 0.18,3 0.71,5.97 1.41,8.9 0.63,2.35 1.47,4.64 2.35,6.91 0.84,2.09 1.91,4.09 2.97,6.07 1.23,2.21 2.54,4.37 3.84,6.54 1.09,1.81 2.2,3.6 3.34,5.37 0.9,1.41 1.83,2.78 2.74,4.17 0.27,0.4 0.55,0.79 0.87,1.15 0.18,0.2 0.2,0.25 0.14,0.13 0.09,0.06 0.21,0.19 0.32,0.22 0.03,0.02 -0.06,-0.04 -0.08,-0.07 0,0 0.02,0 0.03,0.01 0.07,0.02 0.13,0.05 0.19,0.08 0.46,0.21 0.25,0.11 0.62,0.27 0.42,0.19 0.81,0.38 1.18,0.58 h 83.39 v -111.12 z m -82.89,86.06 v 25.06 h 13.22 c -0.15,-0.22 -0.3,-0.45 -0.45,-0.68 -1.21,-1.87 -2.38,-3.76 -3.53,-5.67 -1.39,-2.32 -2.79,-4.63 -4.09,-6.99 -1.28,-2.37 -2.54,-4.76 -3.53,-7.27 -0.57,-1.47 -1.12,-2.95 -1.62,-4.45 z"
         id="path2638" />
    </clipPath>
  </defs>
  <g
     id="layer1"
     transform="translate(395.63203,284.4692)">
    <g
       clip-path="url(#clip0-9)"
       transform="matrix(0.26458333,0,0,0.26458333,-717.10077,-319.60147)"
       id="g2831">
      <path
         d="M 1490.57,3260.13 4370.51,3281 C 4490.16,2907.42 5224.06,2170 4863.02,1795.03 4501.99,1420.06 4860.24,-42.9527 3782,380.02 2703.76,802.993 1842.56,107.314 1486.4,684.727 c -356.17,577.413 53.56,630.983 54.26,1060.213 0.69,429.24 -698.425,382.62 -50.09,1515.19 z"
         fill="#e1ecf2"
         fill-rule="evenodd"
         id="path2643" />
      <path
         d="m 1421,3273 c 0,-45.84 685.23,-83 1530.5,-83 845.27,0 1530.5,37.16 1530.5,83 0,45.84 -685.23,83 -1530.5,83 -845.27,0 -1530.5,-37.16 -1530.5,-83 z"
         fill="#a6c7d8"
         fill-rule="evenodd"
         id="path2645" />
      <path
         d="M 0,0 H 48.1669 V 407.334 H 1174 V 459 H 0 Z"
         fill="#a0bce7"
         fill-rule="evenodd"
         transform="matrix(-1,0,0,1,2526,1321)"
         id="path2647" />
      <path
         d="M 2256.14,1199.99 C 2010.37,959.807 2005.85,565.869 2246.03,320.106 2486.22,74.3424 2880.16,69.8199 3125.92,310.004 c 245.76,240.185 250.29,634.123 10.1,879.886 -240.18,245.76 -634.12,250.29 -879.88,10.1 z m 122.87,-125.73 c 176.33,172.33 458.96,169.08 631.28,-7.24 172.33,-176.329 169.08,-458.964 -7.24,-631.287 -176.33,-172.323 -458.96,-169.079 -631.29,7.247 -172.32,176.325 -169.08,458.961 7.25,631.28 z"
         fill="#c6d7f1"
         fill-rule="evenodd"
         id="path2649" />
      <path
         d="m 2517.6,1356.31 c -330.48,-94.2 -522.02,-438.471 -427.82,-768.946 26.74,-93.785 75.14,-179.972 141.31,-251.61 l 132.8,122.668 c -165.41,179.088 -154.33,458.362 24.76,623.778 50.83,46.94 111.97,81.28 178.51,100.25 z"
         fill="#f4cbc5"
         fill-rule="evenodd"
         id="path2651" />
      <path
         d="m 2667.03,1379.79 c -129.5,-4.4 -254.4,-49.12 -357.26,-127.92 l 109.61,-143.09 c 73.07,55.98 161.78,87.74 253.77,90.87 z"
         fill="#f9e5e2"
         fill-rule="evenodd"
         id="path2653" />
      <rect
         x="1350"
         y="1535"
         width="622"
         height="102"
         fill="#d9d9d9"
         id="rect2655" />
      <rect
         x="1973"
         y="1956"
         width="102"
         height="966"
         fill="#d9d9d9"
         id="rect2657" />
      <rect
         x="1973"
         y="2297"
         width="102"
         height="625"
         fill="#8aeec3"
         id="rect2659" />
      <rect
         x="1766"
         y="2009"
         width="102"
         height="913"
         fill="#d9d9d9"
         id="rect2661" />
      <rect
         x="1766"
         y="2338"
         width="102"
         height="584"
         fill="#8aeec3"
         id="rect2663" />
      <rect
         x="1559"
         y="2132"
         width="102"
         height="790"
         fill="#d9d9d9"
         id="rect2665" />
      <rect
         x="1559"
         y="2431"
         width="102"
         height="491"
         fill="#8aeec3"
         id="rect2667" />
      <rect
         x="1352"
         y="2362"
         width="102"
         height="560"
         fill="#d9d9d9"
         id="rect2669" />
      <rect
         x="1352"
         y="2550"
         width="102"
         height="372"
         fill="#8aeec3"
         id="rect2671" />
      <rect
         x="0"
         y="0"
         width="49"
         height="2565"
         fill="#c6d7f1"
         transform="matrix(-1,0,0,1,3565,357)"
         id="rect2673" />
      <rect
         x="3679"
         y="357"
         width="622"
         height="102"
         fill="#d9d9d9"
         id="rect2675" />
      <rect
         x="3679"
         y="551"
         width="622"
         height="102"
         fill="#d9d9d9"
         id="rect2677" />
      <path
         d="M 3144,1032.67 C 3144,940.619 3218.62,866 3310.67,866 h 1243.6 c 92.05,0 166.67,74.619 166.67,166.67 v 2027.66 c 0,92.05 -74.62,166.67 -166.67,166.67 H 3310.67 C 3218.62,3227 3144,3152.38 3144,3060.33 Z"
         fill="#a0bce7"
         fill-rule="evenodd"
         id="path2679" />
      <path
         d="m 3306,1136.5 c 0,-28.99 23.51,-52.5 52.5,-52.5 h 428 c 29,0 52.5,23.51 52.5,52.5 v 0 c 0,29 -23.51,52.5 -52.5,52.5 h -428 c -28.99,0 -52.5,-23.51 -52.5,-52.5 z"
         fill="#184678"
         fill-rule="evenodd"
         id="path2681" />
      <path
         d="m 3306,1312.5 c 0,-28.99 23.51,-52.5 52.5,-52.5 h 428 c 29,0 52.5,23.51 52.5,52.5 v 0 c 0,29 -23.51,52.5 -52.5,52.5 h -428 c -28.99,0 -52.5,-23.51 -52.5,-52.5 z"
         fill="#184678"
         fill-rule="evenodd"
         id="path2683" />
      <path
         d="m 3306,1489.5 c 0,-28.99 23.51,-52.5 52.5,-52.5 h 428 c 29,0 52.5,23.51 52.5,52.5 v 0 c 0,29 -23.51,52.5 -52.5,52.5 h -428 c -28.99,0 -52.5,-23.51 -52.5,-52.5 z"
         fill="#184678"
         fill-rule="evenodd"
         id="path2685" />
      <path
         d="m 4015,1298.5 c 0,-143.32 121.11,-259.5 270.5,-259.5 149.39,0 270.5,116.18 270.5,259.5 0,143.32 -121.11,259.5 -270.5,259.5 -149.39,0 -270.5,-116.18 -270.5,-259.5 z m 73.32,0 c 0,102.83 88.28,186.18 197.18,186.18 108.9,0 197.18,-83.35 197.18,-186.18 0,-102.82 -88.28,-186.18 -197.18,-186.18 -108.9,0 -197.18,83.36 -197.18,186.18 z"
         fill="#5285d3"
         fill-rule="evenodd"
         id="path2687" />
      <path
         d="m 4048.1,1426.22 c -73.67,-124.75 -27.77,-283.07 102.52,-353.61 40.37,-21.86 85.92,-33.43 132.3,-33.61 l 0.38,91.22 c -99.29,0.36 -179.47,76 -179.08,168.94 0.12,29.36 8.45,58.18 24.16,83.6 z"
         fill="#38e299"
         fill-rule="evenodd"
         id="path2689" />
      <path
         d="m 4087.86,1477.57 c -74.66,-74.99 -95.59,-185.32 -53.23,-280.67 l 85.08,34.67 c -29.07,62.49 -14.83,135.24 36.03,184.03 z"
         fill="#18a468"
         fill-rule="evenodd"
         id="path2691" />
      <path
         d="m 3279,2486.76 58.56,51.24 245.23,-313.25 283.12,13.75 232.93,-328.51 224.66,-26.79 163.5,-275.09 -70.26,-44.11 -149.76,262.03 -226.85,26.88 -226.75,323.51 -279.4,-6.34 z"
         fill="#e37e6e"
         fill-rule="evenodd"
         id="path2693" />
      <rect
         x="4283"
         y="2070"
         width="200"
         height="967"
         fill="#184678"
         id="rect2695" />
      <rect
         x="3961"
         y="2370"
         width="200"
         height="667"
         fill="#184678"
         id="rect2697" />
      <rect
         x="3639"
         y="2571"
         width="200"
         height="466"
         fill="#184678"
         id="rect2699" />
      <path
         d="m 3306,1667.5 c 0,-28.99 23.51,-52.5 52.5,-52.5 h 428 c 29,0 52.5,23.51 52.5,52.5 v 0 c 0,29 -23.51,52.5 -52.5,52.5 h -428 c -28.99,0 -52.5,-23.51 -52.5,-52.5 z"
         fill="#184678"
         fill-rule="evenodd"
         id="path2701" />
      <rect
         x="2914"
         y="2038"
         width="132"
         height="235"
         fill="#0c233c"
         id="rect2703" />
      <path
         d="m 2572,1519.9 c 0,-27.56 22.34,-49.9 49.9,-49.9 h 734.2 c 27.56,0 49.9,22.34 49.9,49.9 v 506.2 c 0,27.56 -22.34,49.9 -49.9,49.9 h -734.2 c -27.56,0 -49.9,-22.34 -49.9,-49.9 z"
         fill="#0c233c"
         fill-rule="evenodd"
         id="path2705" />
      <rect
         x="2615"
         y="1511"
         width="748"
         height="510"
         fill="#afe6e0"
         id="rect2707" />
      <g
         clip-path="url(#clip1-5)"
         id="g2723">
        <g
           clip-path="url(#clip2-8)"
           id="g2721">
          <g
             clip-path="url(#clip3-6)"
             id="g2719">
            <path
               d="m 129.354,107.452 c 0,-34.665 28.101,-62.7662 62.766,-62.7662 34.664,0 62.766,28.1012 62.766,62.7662 0,34.664 -28.102,62.766 -62.766,62.766 -34.665,0 -62.766,-28.102 -62.766,-62.766 z m 8.675,0 c 0,29.873 24.217,54.09 54.091,54.09 29.873,0 54.09,-24.217 54.09,-54.09 0,-29.8736 -24.217,-54.0907 -54.09,-54.0907 -29.874,0 -54.091,24.2171 -54.091,54.0907 z"
               fill="#2c8e82"
               fill-rule="evenodd"
               transform="matrix(1.00447,0,0,1,2674.97,1498.78)"
               id="path2709" />
            <g
               clip-path="url(#clip4-9)"
               id="g2713">
              <path
                 d="m 123.474,100.984 c 0,-34.6647 28.101,-62.7659 62.766,-62.7659 34.665,0 62.766,28.1012 62.766,62.7659 0,34.665 -28.101,62.766 -62.766,62.766 -34.665,0 -62.766,-28.101 -62.766,-62.766 z m 1.293,0 c 0,33.951 27.522,61.473 61.473,61.473 33.951,0 61.473,-27.522 61.473,-61.473 0,-33.9506 -27.522,-61.4729 -61.473,-61.4729 -33.951,0 -61.473,27.5223 -61.473,61.4729 z"
                 fill="#2c8e82"
                 fill-rule="evenodd"
                 transform="matrix(1.00447,0,0,1,2674.97,1498.78)"
                 id="path2711" />
            </g>
            <g
               clip-path="url(#clip5-9)"
               id="g2717">
              <path
                 d="m 130.53,100.249 c 0,-30.6867 24.81,-55.5632 55.416,-55.5632 30.606,0 55.416,24.8765 55.416,55.5632 0,30.687 -24.81,55.563 -55.416,55.563 -30.606,0 -55.416,-24.876 -55.416,-55.563 z m 1.141,0 c 0,30.056 24.3,54.422 54.275,54.422 29.975,0 54.275,-24.366 54.275,-54.422 0,-30.0561 -24.3,-54.4216 -54.275,-54.4216 -29.975,0 -54.275,24.3655 -54.275,54.4216 z"
                 fill="#2c8e82"
                 fill-rule="evenodd"
                 transform="matrix(1.00447,0,0,1,2674.97,1498.78)"
                 id="path2715" />
            </g>
          </g>
        </g>
      </g>
      <rect
         x="2615"
         y="1511"
         width="141"
         height="509"
         fill="#3abeae"
         id="rect2725" />
      <path
         d="m 2958,1564.5 c 0,-6.9 5.6,-12.5 12.5,-12.5 h 328 c 6.9,0 12.5,5.6 12.5,12.5 v 50 c 0,6.9 -5.6,12.5 -12.5,12.5 h -328 c -6.9,0 -12.5,-5.6 -12.5,-12.5 z"
         fill="#6aa2be"
         fill-rule="evenodd"
         id="path2727" />
      <path
         d="m 2989,1676 c 0,-10.49 8.51,-19 19,-19 h 112 c 10.49,0 19,8.51 19,19 v 0 c 0,10.49 -8.51,19 -19,19 h -112 c -10.49,0 -19,-8.51 -19,-19 z"
         fill="#3abeae"
         fill-rule="evenodd"
         id="path2729" />
      <path
         d="m 2642,1583 c 0,-8.84 7.16,-16 16,-16 h 59 c 8.84,0 16,7.16 16,16 v 0 c 0,8.84 -7.16,16 -16,16 h -59 c -8.84,0 -16,-7.16 -16,-16 z"
         fill="#d7f3ef"
         fill-rule="evenodd"
         id="path2731" />
      <path
         d="m 2638,1624.16 c 0,-4.51 3.65,-8.16 8.16,-8.16 h 80.68 c 4.51,0 8.16,3.65 8.16,8.16 v 51.68 c 0,4.51 -3.65,8.16 -8.16,8.16 h -80.68 c -4.51,0 -8.16,-3.65 -8.16,-8.16 z"
         fill="#1d5f57"
         fill-rule="evenodd"
         id="path2733" />
      <path
         d="m 2785,1740.25 c 0,-8.42 6.83,-15.25 15.25,-15.25 h 135.5 c 8.42,0 15.25,6.83 15.25,15.25 v 92.5 c 0,8.42 -6.83,15.25 -15.25,15.25 h -135.5 c -8.42,0 -15.25,-6.83 -15.25,-15.25 z"
         fill="#d7f3ef"
         fill-rule="evenodd"
         id="path2735" />
      <path
         d="m 2982,1740.25 c 0,-8.42 6.83,-15.25 15.25,-15.25 h 135.5 c 8.42,0 15.25,6.83 15.25,15.25 v 92.5 c 0,8.42 -6.83,15.25 -15.25,15.25 h -135.5 c -8.42,0 -15.25,-6.83 -15.25,-15.25 z"
         fill="#d7f3ef"
         fill-rule="evenodd"
         id="path2737" />
      <path
         d="m 3178,1740.25 c 0,-8.42 6.83,-15.25 15.25,-15.25 h 135.5 c 8.42,0 15.25,6.83 15.25,15.25 v 92.5 c 0,8.42 -6.83,15.25 -15.25,15.25 h -135.5 c -8.42,0 -15.25,-6.83 -15.25,-15.25 z"
         fill="#d7f3ef"
         fill-rule="evenodd"
         id="path2739" />
      <path
         d="m 2787,1893.25 c 0,-8.42 6.83,-15.25 15.25,-15.25 h 135.5 c 8.42,0 15.25,6.83 15.25,15.25 v 92.5 c 0,8.42 -6.83,15.25 -15.25,15.25 h -135.5 c -8.42,0 -15.25,-6.83 -15.25,-15.25 z"
         fill="#d7f3ef"
         fill-rule="evenodd"
         id="path2741" />
      <path
         d="m 2983,1893.25 c 0,-8.42 6.83,-15.25 15.25,-15.25 h 136.5 c 8.42,0 15.25,6.83 15.25,15.25 v 92.5 c 0,8.42 -6.83,15.25 -15.25,15.25 h -136.5 c -8.42,0 -15.25,-6.83 -15.25,-15.25 z"
         fill="#d7f3ef"
         fill-rule="evenodd"
         id="path2743" />
      <path
         d="m 3180,1893.25 c 0,-8.42 6.83,-15.25 15.25,-15.25 h 135.5 c 8.42,0 15.25,6.83 15.25,15.25 v 92.5 c 0,8.42 -6.83,15.25 -15.25,15.25 h -135.5 c -8.42,0 -15.25,-6.83 -15.25,-15.25 z"
         fill="#d7f3ef"
         fill-rule="evenodd"
         id="path2745" />
      <path
         d="M 0,0 H 61.1238 L 748,475.447 V 508 H 0 Z"
         fill="#d7f3ef"
         fill-rule="evenodd"
         fill-opacity="0.501961"
         transform="matrix(1,0,0,-1,2615,2021)"
         id="path2747" />
      <rect
         x="2587"
         y="2281"
         width="51"
         height="988"
         fill="#2d5467"
         id="rect2749" />
      <rect
         x="3487"
         y="2281"
         width="51"
         height="988"
         fill="#2d5467"
         id="rect2751" />
      <rect
         x="2366"
         y="2213"
         width="1389"
         height="77"
         fill="#437e9b"
         id="rect2753" />
      <path
         d="m 2280,2732 9.48,437.71 23.7,0.95 -11.38,24.58 -8.53,80.36 c 73.31,8.82 140.93,10.08 202.86,6.61 16.43,-3.15 15.8,-32.77 -1.89,-37.81 l -88.16,-26.47 -19.91,-52 18.01,-0.94 36.97,-432.99 z"
         fill="#0c233c"
         fill-rule="evenodd"
         id="path2755" />
      <path
         d="m 2145,2577.58 c -0.48,52.97 34.51,62 90.07,60.4 172.91,4.64 305.37,24.87 482.53,25.26 l 10.27,516.26 25.66,-0.64 -6.59,17.56 c -2.86,26.38 -3.6,59.84 2.06,83.39 l 219.82,2.19 c 28.56,-1.31 17.4,-39.47 -3.69,-42.2 -60.14,-12.05 -103.25,-21.98 -119.4,-37.58 -9.88,-6.56 -19.76,-13.12 -23.25,-21.8 l 25.51,0.64 35.15,-601.28 c 2.47,-28.9 -15.63,-47.87 -35.15,-52.67 L 2424,2413"
         fill="#0c233c"
         fill-rule="evenodd"
         id="path2757" />
      <path
         d="m 3011,2217 v 0 l 137,-1.76 c -7.33,-35.1 -17.51,-57.22 -71.69,-64.24 -44.49,17.79 -43.54,44 -65.31,66 z"
         fill="#27559c"
         fill-rule="evenodd"
         id="path2759" />
      <path
         d="m 2948.77,2209.7 c 27.97,1.43 59.49,15.02 71.1,8.58 23.46,-54.35 57.58,-70.8 98.11,-57.93 0.47,-5.96 -6.17,-14.06 -13.51,-17.88 -18.49,-9.06 -72.52,-28.84 -86.74,-23.6 -15.87,6.2 -29.62,26.7 -41.23,27.18 l -45.5,1.43 z"
         fill="#eeb2a8"
         fill-rule="evenodd"
         id="path2761" />
      <path
         d="m 2236.86,1737.77 c 5.52,-39.2 9.61,-103.92 3.78,-113.37 -45.04,-57.94 -68.03,-125.65 -4.72,-182.33 63.31,-56.69 201.03,-16.3 187.1,76.52 0.55,19.13 -4.57,41.1 -1.89,61.65 7,35.9 -10.79,93.05 -17.25,102.03 -11.65,19.68 -41.02,2.52 -47.01,10.16 0.08,19.52 -5.51,35.5 0.24,58.57 z"
         fill="#eeb2a8"
         fill-rule="evenodd"
         id="path2763" />
      <path
         d="M 2356.85,1691.66 2345,1599 c 18.43,57.51 34.36,76.33 65,70.3 -10.53,34.08 -32.2,20.94 -53.15,22.36 z"
         fill="#e37e6e"
         fill-rule="evenodd"
         id="path2765" />
      <path
         d="m 2240.1,1708 116.26,9.92 19.85,25.52 119.09,25.52 c 25.52,5.68 41.11,34.03 59.55,68.06 l 150.28,260.87 245.27,34.03 c 11.58,33.31 8.98,65.21 -1.42,97.82 l -304.82,-36.86 c -25.99,-2.83 -35.68,-18.43 -48.2,-34.03 l -97.83,-165.88 c -25.75,256.62 36.39,474.96 31.2,599.73 -131.38,21.26 -258.98,22.68 -399.81,-1.42 l -35.45,-527.42 c 0.48,-49.15 -33.08,-121.69 -36.86,-147.45 -4.96,-35.44 -3.54,-68.05 0,-97.82 4.02,-21.98 23.63,-37.57 48.21,-46.79 l 120.51,-38.28 z"
         fill="#ffffff"
         fill-rule="evenodd"
         id="path2767" />
      <rect
         x="2235"
         y="2708"
         width="222"
         height="41"
         fill="#2d5467"
         id="rect2769" />
      <rect
         x="2325"
         y="2708"
         width="41"
         height="422"
         fill="#2d5467"
         id="rect2771" />
      <path
         d="m 2328.74,3125.14 13.56,-37.97 397.15,141.9 -13.56,37.96 z"
         fill="#2d5467"
         fill-rule="evenodd"
         id="path2773" />
      <path
         d="m 2346.96,3087.17 13.78,37.89 -396.3,144.24 -13.79,-37.88 z"
         fill="#2d5467"
         fill-rule="evenodd"
         id="path2775" />
      <path
         d="m 1942,3255 c 0,-17.12 13.66,-31 30.5,-31 16.84,0 30.5,13.88 30.5,31 0,17.12 -13.66,31 -30.5,31 -16.84,0 -30.5,-13.88 -30.5,-31 z"
         fill="#2d5467"
         fill-rule="evenodd"
         id="path2777" />
      <path
         d="m 2694,3255.5 c 0,-16.84 13.88,-30.5 31,-30.5 17.12,0 31,13.66 31,30.5 0,16.84 -13.88,30.5 -31,30.5 -17.12,0 -31,-13.66 -31,-30.5 z"
         fill="#2d5467"
         fill-rule="evenodd"
         id="path2779" />
      <path
         d="m 2089.56,2565.14 c -0.38,-3.59 2.22,-6.81 5.81,-7.2 l 31.46,-3.37 c 3.6,-0.39 6.82,2.21 7.2,5.8 l 10.57,98.56 c 0.38,3.59 -2.21,6.81 -5.81,7.2 l -31.46,3.37 c -3.59,0.38 -6.82,-2.21 -7.2,-5.8 z"
         fill="#2d5467"
         fill-rule="evenodd"
         id="path2781" />
      <path
         d="m 2067,2675 c 0,-24.3 19.7,-44 44,-44 h 469 c 24.3,0 44,19.7 44,44 v 0 c 0,24.3 -19.7,44 -44,44 h -469 c -24.3,0 -44,-19.7 -44,-44 z"
         fill="#3abeae"
         fill-rule="evenodd"
         id="path2783" />
      <path
         d="m 2057,1921 c 81.73,93.04 121.7,130.69 254.91,195.08 -32.24,262.91 45.72,393.81 77.09,492.87 -94.59,3.62 -176.88,-2.2 -255.38,-16.54 C 2128.89,2213 2086.51,2016.54 2057,1921 Z"
         fill="#c3dae5"
         fill-rule="evenodd"
         id="path2785" />
      <path
         d="m 1929,2138.44 c 0,-55.47 44.97,-100.44 100.44,-100.44 h 189.12 c 55.47,0 100.44,44.97 100.44,100.44 v 335.12 c 0,55.47 -44.97,100.44 -100.44,100.44 H 2029.44 C 1973.97,2574 1929,2529.03 1929,2473.56 Z"
         fill="#3abeae"
         fill-rule="evenodd"
         id="path2787" />
      <path
         d="m 2212,1739.92 c 2.76,-13.47 8.91,-17.6 24.11,-16.83 17.15,16.5 78.74,27.6 128.28,11.22 20.74,-1.87 31.31,9.02 39.61,19.42 -90.74,33.19 -166.8,8.95 -192,-13.81 z"
         fill="#0c233c"
         fill-rule="evenodd"
         id="path2789" />
      <path
         d="M 2499.28,1996.36 2475,1911 c 53.79,89.39 133.07,208.61 161.36,236.21 20.37,23.45 206.49,31.85 321.64,44.37 -1.39,14.28 -3.9,26.85 -9.26,39.42 l -316.7,-37.26 c -14.86,-3.02 -29.15,-18.54 -37.77,-34.63 z"
         fill="#c3dae5"
         fill-rule="evenodd"
         id="path2791" />
      <path
         d="m 3461,2010.92 c 72.58,-171.91 77.94,-162.14 79.43,-20.91 86.27,-51.6 55.35,-33.87 35.54,24.5 l -1.66,67.53 -56.66,8.96 z"
         fill="#18a468"
         fill-rule="evenodd"
         id="path2793" />
      <path
         d="m 3431.94,2104.01 c -9.7,-27.86 -75.96,-85.08 -29.11,-83.58 -39.18,-58.62 -41.21,-88.47 -4.99,-53.62 -25.78,-145.9 38.81,-62.91 72.36,37.44 16.63,5.4 29.94,3 44.91,32.36 6.37,-8.29 19.96,-32.16 20.79,36.25 14.97,-30.66 42.14,-63.71 64.31,-94.37 64.04,-94.97 71.53,-37.75 13.03,91.37 l -25.78,31.46 -65.7,11.68 z"
         fill="#38e299"
         fill-rule="evenodd"
         id="path2795" />
      <rect
         x="3402"
         y="2099"
         width="219"
         height="114"
         fill="#6aa2be"
         id="rect2797" />
      <path
         d="M 2672,759.5 C 2672,616.182 2788.18,500 2931.5,500 3074.82,500 3191,616.182 3191,759.5 3191,902.818 3074.82,1019 2931.5,1019 2788.18,1019 2672,902.818 2672,759.5 Z"
         fill="#437e9b"
         fill-rule="evenodd"
         id="path2799" />
      <path
         d="m 2692,759 c 0,-131.996 107,-239 239,-239 132,0 239,107.004 239,239 0,131.996 -107,239 -239,239 -132,0 -239,-107.004 -239,-239 z"
         fill="#6aa2be"
         fill-rule="evenodd"
         id="path2801" />
      <path
         d="m 2759,712.149 h 125.15 V 587 h 94.7 V 712.149 H 3104 v 94.702 H 2978.85 V 932 h -94.7 V 806.851 H 2759 Z"
         fill="#e1ecf2"
         fill-rule="evenodd"
         id="path2803" />
      <path
         d="m 4361,2564 c 0,-143.59 116.18,-260 259.5,-260 143.32,0 259.5,116.41 259.5,260 0,143.59 -116.18,260 -259.5,260 -143.32,0 -259.5,-116.41 -259.5,-260 z"
         fill="#437e9b"
         fill-rule="evenodd"
         id="path2805" />
      <path
         d="m 4382,2564 c 0,-132 107,-239 239,-239 132,0 239,107 239,239 0,132 -107,239 -239,239 -132,0 -239,-107 -239,-239 z"
         fill="#6aa2be"
         fill-rule="evenodd"
         id="path2807" />
      <path
         d="m 4623.5,2498.25 c 71.88,-201.25 352.19,0 0,258.75 -352.19,-258.75 -71.88,-460 0,-258.75 z"
         fill="#e1ecf2"
         fill-rule="evenodd"
         id="path2809" />
      <rect
         x="4738"
         y="2572"
         width="80"
         height="23"
         fill="#6aa2be"
         id="rect2811" />
      <path
         d="m 4491.42,2572.1 16.47,-26.14 40.27,68.93 49.59,-104.89 45.77,101.73 38.77,-74.92 38.44,62.26 17.47,-28.47 24.8,1 c -5.33,7.55 -10.82,14.77 -16.14,22.31 l -27.46,44.62 -34.95,-51.11 -39.44,69.93 -47.76,-91.74 -45.59,105.39 -44.1,-76.59 -65.9,1.17 -5.66,-23.81 z"
         fill="#6aa2be"
         fill-rule="evenodd"
         id="path2813" />
      <path
         d="m 1435,2822 c 0,-143.59 116.18,-260 259.5,-260 143.32,0 259.5,116.41 259.5,260 0,143.59 -116.18,260 -259.5,260 -143.32,0 -259.5,-116.41 -259.5,-260 z"
         fill="#437e9b"
         fill-rule="evenodd"
         id="path2815" />
      <path
         d="m 1456,2822 c 0,-132 107,-239 239,-239 132,0 239,107 239,239 0,132 -107,239 -239,239 -132,0 -239,-107 -239,-239 z"
         fill="#6aa2be"
         fill-rule="evenodd"
         id="path2817" />
      <path
         d="m 1558,2729.29 c 0,-21.15 17.14,-38.29 38.29,-38.29 h 196.42 c 21.15,0 38.29,17.14 38.29,38.29 v 217.42 c 0,21.15 -17.14,38.29 -38.29,38.29 h -196.42 c -21.15,0 -38.29,-17.14 -38.29,-38.29 z"
         fill="#e1ecf2"
         fill-rule="evenodd"
         id="path2819" />
      <path
         d="m 1586,2721.57 c 0,-16.88 13.69,-30.57 30.57,-30.57 h 156.86 c 16.88,0 30.57,13.69 30.57,30.57 v 205.86 c 0,16.88 -13.69,30.57 -30.57,30.57 h -156.86 c -16.88,0 -30.57,-13.69 -30.57,-30.57 z"
         fill="#6aa2be"
         fill-rule="evenodd"
         id="path2821" />
      <path
         d="m 1553.5,2668 h 282 c 6.9,0 12.5,5.6 12.5,12.5 v 62.5 h -307 v -62.5 c 0,-6.9 5.6,-12.5 12.5,-12.5 z"
         fill="#e1ecf2"
         fill-rule="evenodd"
         id="path2823" />
      <rect
         x="1667"
         y="2777"
         width="146"
         height="28"
         fill="#e1ecf2"
         id="rect2825" />
      <rect
         x="1667"
         y="2833"
         width="146"
         height="27"
         fill="#e1ecf2"
         id="rect2827" />
      <rect
         x="1667"
         y="2888"
         width="146"
         height="28"
         fill="#e1ecf2"
         id="rect2829" />
    </g>
  </g>
</svg>
